<svg xmlns="http://www.w3.org/2000/svg" viewBox="0 0 731 777" preserveAspectRatio="xMinYMin">
		<path fill="#82a822" stroke="#fff" d="M286.22 500.16v1.25h-3.1l-5.34 5H262.75l-2.06-1.4-4.32 1.94v5.34l2.78 7.47v8.78c-.45-.23-.2-1.5-.2-2.1l-5.18 3.35v4.97l-5.06 5.2v8.3l1.25 4.72h3.97l2.06-2.06h4.72v2.07h4.15v-1.38h3.25l13.32 9.06-.06.3 7.96-4.62 4.63-.3 3.25 3.46v2.9h.12v3l-4.84 5.32-11.56 6.94v.06l2.56 2.06v2.78h2.1l-3.63 4.5V589l2.44 1.75-2.27 2.56h-1.75v4.17l10.6 8.15 3.96 1.4v1.73h-2.22l-.22 1.53h2.1v4l11.4 5.35h3.7v2.06h2.9l6.43-7.95 7.97-16.63 5.88-2.43v-4.17l-2.07-1.37 2.92-2.44v-1.8l11.12-5.58 5.32-1.97h3.8v3.32H359v-5.54l1.87-2.28v-2.9h-2.56v-2.67h-4l-9.3-6.33v-3.25h-1.53v-2.63l6.94-9.73 2.9-6.2-3.6-4.4h-1.6v-3.93l-1.85-1.93h-3l-2.4 2.63-2.35-4.78 2.63-4.34v-5.34l-2.16-3.37-2.22-.1-.22-3.6-2.34-3.66h-4.4v4.5L316.2 521h-3v1.72h-4.82l-9.7-8.5 2.32-1.94-2.1-3.12-5.87 5.9-4.87-4.5 5.2-6.37-1.58-4.04zm43.97 15.53v2.55l4 5.88v2.78l-4.5 2.07-5.07 4.15v1.94h-3.6l-1.72-1.6v-2.74l4.86-5.35.12-5.87zm-52.4 45.64l-9.9 9.9v2.42l-2.77 1.87v2.97l1.96 3.13h4.27l1.72-2.07h2.43l1.38-2.1-2.74-2.27v-5l3.65-3.33 2.1-4.3z" stroke-width="1.1" stroke-linejoin="round" style="-webkit-tap-highlight-color:rgba(0, 0, 0, 0)" cursor="default" vector-effect="non-scaling-stroke"/>
		<path fill="#e5670c" stroke="#fff" d="M42.16 544.53l-4 1.94v3.94l.56 2.8h-2.66v5.52l-.62 1.06 4.78 3.1v-7.07l2.44-2.74h2.06v-4.87l1.75-1.95v-1.72zm-9.53 17.3l-1.88 5.2v5.56l2.56 1.37 5.76-9.5zm61.65 24.08l-2.4 2.98H86.3l-2.74 3.62v2.97l-3.12 2.78v2.4l-1.72 1.76h-3.7l-1.7-2.65h-1.76L69 602.53v3.3l-3.5 1.6v2.07h-2.63v-2.75l-2.9-3h-2.63l-2.22 4.38H52v2.43h3.6v3.78H52.1l-1.84-2.06h-3.7l-2.2-1.37-1.38-1.6v2.64h-3.34l-4.97 9h3.24l3.65-3.32v-2.1l3.46-2.05v4.15l-2.06 2.4 5.7 3.82h2.96v3.82l.06.06 6.16 2.22 1.4 1.53V637l1.88 1.94v2.56h-2.94v-2.22h-5.2v-7.6H51.1v-2.3H47.6v1.93l-2.4 1.9 1.72 2.08v4.5l1.75 1.94h2.6l2.23 4.15-3.8 7.3h2.74l6.6-7.86h6.24v-1.36h4.14v3.8l-3.78 2.63v1.54l2.97 1.94h2.9v-1.75h2.44l4-4.16v-3.32l-3.13-4.5h-3.8l-1.73 1.38h-2.27l-1.37-1.72 3.65-2.44h1.54v-2.22l-2.56-4.84v-3.47l3.13-1.58 1.85-2.56 3.1 2.72c-.1.06-.17.14-.26.2l3.46 4.58v6.56l.16-.06 3.94 3.4v2.22l2.9 1.72v4.5l-5.7 3.47.02 1.72h6.6v1.74l-4.17 3.3v4.17l-4.02 4.5v2.44l-4.62 3.13v3.1l.15.18-2.77 2.28H68.4l-1.78 2.22v11.63l-1.75 1.4v3.66l5.07 4.5v7.4l-2.97 5.4h-2.1l-2.06-2.27-2.2 1.6 1.87 2.77 2.06 4.97 10.25 2.1L77 728.3h3.8l3.7-2.1v-2.77l-4.38-3.65v-6.72h-1.75v-2.44l4.72-6.1v-4.06h5.06l3.97 2.4v1.88l-1.88 4.37h-2.1l-1.7-3h-2.8v4.02h3.47v4.63l1.04 1.75 1.37.34v8.66h-1.37v2.28l-5.2 5.53 2.07 2.92 1.53-2.2h3.35l8.66-5.55v-2.4h6.56v-1.76l-2.06-4.14h-1.94v-2.07l2.3-3.48h3.92l1.78 3.07 4.35 1.7.06-.12c1.4-5.08 3.6-9.35 6.66-12.8l1.74-7.86h-1.4v-6.37l11.77-27.56h2.17v-3.14h-1.38v-4.15h2.18l6.47-5.65v-2.38l3.75-2.25 4.66-6.37h-5.2v-4.72h3.32v-1.72h-4.37v-1.86l-3.46-2.4 3.7-4.54h-6.95v-1.6h-7.48l-2.56-3.24 1.72-2.28h4.15l4.84-4.3v-7.96l-4.15-5.18h-2.63l-2.9 1.5-3.48 4.87h-2.06v5.04h1.72v3.97l-.13.1v-3.93h-1.72v-5.06c-3.32-2.63-7.37-4.27-12.12-4.96l-2.1-3.7-1.36-8.3 1.37-4.16-6.4 3.3-2.78-3.67zm-41.6.82l-3.12 2.06v4.16l2.75 2.65 3.14-2.8v-3.1zm-29.77 27.5v2.22l3.13.34v-2.56zm-2.96 4.15l2.4 2.22v-2.23zm4.34 3.13l-2.06 3.8-1.94 2.08v3.8H17.5l1.38 2.8v3.46l1.4 2.75 1.94-3.33v-4.65h3.25v-3.47l-2.9 2.1v-3.7h1.7zm-10.72 13.63v2.65l-3-1.6v2.63l2.3 2.42 2.23-2.97v-3.13zM1.22 638.6v4.7l1.6 2.08-2.4 2.78h3.92l1.6 2.1v-3.48h3.12v1.72h3.1v-2.4l-2.4-2.44v-2.78l-1.95-1.94-1.4 2.1H3.85zm76.7 16.15l-2.8 2.97h-2.06l-3.47 2.7v3.52l1.93 1.06h4.3l3.45-5.06-1.37-1.75zm-14.55 1.6l-5.34 6.9v3.13l3.25 2.2h-3.8v3.33l2.08 2.9 5.88-7.4h2.62l.5-11.06zm2.57 13.74l-3.63 4.84v3.12l3.76 1.5 1.25-1.03v-8.44zm-16.22 19.18l-1.03 1.38 1.83 2.78h3.8l-2.4-4.16zm-4.5 6.22l-4.5 4.72v2.06l3.47-.7 3.77-6.08zm52.28 52.16v2.78l-3.44 4.15v6.2l-5.34 5.42v1.53l1.37 1.6v2.77l3.24-.37 1.94-1.56v-5.7l5.56-10.4v-6.44zm-23.7 18.56l-5.4 2.9v3.82l2.8 3.68 6.08.13 3.47-3.8v-3.48l-3.47-3.25z" stroke-width="1.1" stroke-linejoin="round" style="-webkit-tap-highlight-color:rgba(0, 0, 0, 0)" cursor="default" vector-effect="non-scaling-stroke"/>
		<path fill="#7030a0" stroke="#fff" d="M484.75 430l-4.16 4.34h-1.94l-15.7 8.8v-.08l-4.37-1.37h-1.73l-4.37-5.92-6.03 4.16v7.28h-3.13l-2.06 4h-5.9v1.87l-2.97 1.74h-3.6v2.3l-3.8 3.1-1.94 2.76v3.47l2.63 3.12h6.36l2.28 3.46v2.56L432.4 477v7.97l1.4 1.37v2.8l3.45 2.6v3.45l6.22 2.2 4.15 6.1 6.97 3.38V513l-11.3 6.94 7.14 3.8-2.4 3.67v2.8l4.96 5.17 1.94-2.06v-3.1l9.22-6.1h6.37l2.97 2.27 2.1 4.85v3.12h1.52v-4.84l3.32-2.1v-1.6h-3.66v-4.83l.16-4.66 4.97-3.67v-3.82h5.76v-3.24l.03.03h3.08l5.22 4.5v1.52l-.78.63s-3.98 2.7 0 .06l-7.56 6.32v1.6l-4.72 3.6v2.96h2.62v1.8l-2.97 1.7v3.44l1.7 1.4-1.36 2.75 2.62 2.8h-4.37l3.1 5.52h3.48l3.3-3.1v-3.82l7.8-5.2 5.96-1.83.13.06 2.97-2.74 1.06-3.12v-4.38h-1.4v-4.62l3.62-6.78 4.34-3.97c4.42-3.65-2.46 1.57 4.53-3.04h7.06v-2.1l-1.85-.9-11.77-20.47v-7.95l1.88-1.53v-7.63c1.16-5.36 3.76-10.73 7.82-16.13v-2.78l-5.2-3.6h-4l-4.3 3.24h-5.53c-6.44-5.47-2.94-.82-3.9-6.03l-1.7-3.8c-1.67-.74-3.36-1.5-5.07-2.28l-5.87-1.72z" stroke-width="1.1" stroke-linejoin="round" style="-webkit-tap-highlight-color:rgba(0, 0, 0, 0)" cursor="default" vector-effect="non-scaling-stroke"/>
		<path fill="#d68d0c" stroke="#fff" d="M247.47 562.28l-2.06 2.1h-2.43l.34 2.28h2.1l1.54 1.72h4.7v-6.1zm-16.13 7.16l-2.28 2.06v2.1l-6.94 5.18-4.15-1.94 1.6 4.5v5.07l-2.35 2.1h-.47l-2.63 2.34-11.43 1.4h-5.42l-6.56-9.33-7.1 4.85-1.93 5.75h-2.23v6.72l-22.16 15.9h-4l-3.46 4.38h5.07l1.6-1.94 6.9-4.28 2.1 2.22v5.88h4.84l-2.62 1.6 2.4 2.43v2.2h-3.25l1.88 5.4-3.13 2.44 5.07 7.28 7.1 2.65h-2.77v3.32l4.38 1.7h7.07l2.1 3.13h2.62v-2.78l-2.8-1.38v-1.7l2.57-1.95v-7.28h2.97l5.7-6.6 4.02-10.72 13.15-8.46 11.92 1.75 13.72 14.07c.54-6.98 2.3-11.8 5.25-14.53h.27c2.95-4.16 7.6-8.17 13.94-12l3.94-1.72-3.46-2.1 1.93-2.06v-1.87l-1.93-3.33h-2.06v-6.03l2.64-2.78-1.94-2.43h-5.4v-.13l-7.3-3.3v-2.58l-1.36-1.12h-3.47l-.7-3.25-3 2.97h-2.74z" stroke-width="1.1" stroke-linejoin="round" style="-webkit-tap-highlight-color:rgba(0, 0, 0, 0)" cursor="default" vector-effect="non-scaling-stroke"/>
		<path fill="#c7cc1c" stroke="#fff" d="M208.7 467.66l-3.48 4.15v3.67l3.34 2.1 2.22.5 3.3-2.1v-3.94zm-10.2 11.28l-1.38.5v3.2l1.38 1.3zm1.53.34v6.03l3.8-3.58zm-4.28.63l-1.4.44v2.75l1.4 1.3zm2.4 5.4l-1.03 1.04v.57h3.13zm2.85 20.26l-5.88 4.97h-6.03l-3.82 3.47h-5.2l1.86 2.44v2.28l-5.3 4.34-1.1.42-3.16 1.7-3.25 4.5v1.54l-1.6 1.6h-2.06l-7.63 5.34L143.16 552h-3.32v.1h-3.97l-12.96 12.8h-4v-2.56H116v1.5h-4.72l-2.78-1.37v3.47h-4.28v5.4h1.87v3.25l-2.9 2.77 1.86 2.97v6.38l3.94-3.6h3.53l3.8 3.94h5.36l2.27-2.9h2.22v2.2h2.74v-2.9l.06-.05 2.78 2.57 4.28-2.28h5.53v6.08h2.3l2.4-2.06 8.32 6 4.85-5.53v-8.8l.2.13 1.7-6.1 6.72-5.05 3.68 2.28v1.87l3.25 4.38h6.6l5.87-5.4h6.94v.03h2.8v-2.06h5.57l1.4-2.22h1.52v2.56h2.75l6.1-4.8v.13h5.18l3.5-2.66v2.84h3.38v2.3h2.43l4.66-1.6 4.7-5.7h4.3l7.47-7.24-1.26-4.72v-5.18l-.03-.03v-3.1l5.04-5.22v-4.96h.1l5.18-3.3v-6.73l-2.78-7.46V507h-2.75l-5.57 4.16h-4.5l-1.72 1.37-3.46-2.06-2.63 1.72-.02.05h-10.4l-4.3-1.37h-4.83l-2.28 3.93h-1.88l-3.82-2.9H206l1.8 3.13h-4.17l-2.07-1.37h-3.47l-3.32 1.93h-3.12l2.62-3.32h5.88l1.75-1.53h5.2l2.78-2.1h-6.44z" stroke-width="1.1" stroke-linejoin="round" style="-webkit-tap-highlight-color:rgba(0, 0, 0, 0)" cursor="default" vector-effect="non-scaling-stroke"/>
		<path fill="#1fa143" stroke="#fff" d="M468.2 359.72L465.2 367l-1.88 11.28-4.84 8.78-13.03 5.9-6.72 6.45-2.44 7.98-7.1 12.8-12.95 9v2.07h-6.6l-5.52 5-10.4 4.5-3.3-.06-7.96 3.1v5.04l-5.4 3.47h-5.35l-5.75-4.68v-2.93l2.1-1.4v-1.93h-4.16l.07-.06h4.16v-7.05l-3.6 2.75-4.03-1.72V433l2.28-5.7 3.8 2.57 4.1-5.18h3.2l3.25-3.54v-3.54h4.03v-2.43l-2.1-2.07h-6.56l-6.6 4.84h-5.74l-6.22 3.8v5.32h-1.4v4.7l1.24.7v4.88l2.28 2.75v3.12l4.16 2.22-.03.03-4.17-2.22-5.56 12.8-5.75 6.95-5.53 7.97h-2.92v1.37l-2.15 2.1-4.44 2.03-7.26 11.9v8.2l4.7 3.46v6.72h-3.1v-3.97h-2.85v7.07h2.83v5.4l5.88-4.5v-4.5h4.32l-.03.04 2.33 3.67.22 3.62 2.22.06 2.12 3.37v5.34l-2.63 4.38 2.44 4.84 2.4-2.63h3l1.9 1.94v3.94c1 2.46 10.24 4.27 10.24 6.13l-1.6 1.37v5.9h1.75v6.57l3.46 2.45v-7.3l4.5 3.2h6.57v-1.37h5l1.37 1.6v2.74l-5.87 2.8h-5l-3.66 3.24v1.93h4.5l16.44-5.4h.04v-.04l2.87-5.6h2.98l-2.06 3.44 3.25 2.56h14.56l9 3.35v-5.18l2.28-2.44h-.02l4.63-9.22 5.35-3.94v-2.3l5.06-3.95h6.95l3.44 2.8 5.33-6.26-1.53-1.7v-2.8l2.44-3.65-7.07-3.78 11.22-6.9v-6.38l-7.13-3.14-4.16-6.1-6.14-2.18v-3.47l-3.44-2.6v-2.8l-1.4-1.37v-7.97l1.93-1.4v-2.57l-2.28-3.48h-6.38l-2.63-3.1v-3.46l1.94-2.78 3.82-3.1v-2.3h3.6l3-1.72v-1.82h5.87l2.05-4h3.12v-7.28l6.04-4.15 4.35 5.88h1.75v-6l-1.94-7.15h-1.75v-6.22l1.76-.34v-7l1.72-1.12h4.5l2.1-2.06h6.56v-6.25l4.72-6.44-4.72-5.54 2.43-5.7v-8.15l2.4-2.55h3.48l3.12-2.44-4.15-5.05h-2.44v-5.3zm-43.23 11.75l-2.44 2.22-7.12 8.83v7.06l2.3-2.07 1.7 2.4-1.93 3.82-3.13 2.44v2.05h3.7l4.5-2.9 4.15-4 2.77-5.7-1.4-1.37h-4.16v-4.03l3.13-5.88v-2.9zm-61.63 60.5v2.06h2.44l1.38-2.06zm-48 76.4v3.25l-2.2 2.3-1.76-2.08h-2.4v1.38l1.86 2.9h-4.87v-1.7h-3.25l-1.72-2.1-2.28 1.93v3.63l9.7 4.84h4.83v-1.75h2.97l7.78-5.66v-5.4h-5.7v-1.52zm134.2 23.6l-5.35 6.25v2.06h-5.04v14.9h-1.54v2.8l3.94 3.58h3.35l3.94-3.93 4.5-9.57h1.72v-4.87L453 541.1v-5.68z" stroke-width="1.1" stroke-linejoin="round" style="-webkit-tap-highlight-color:rgba(0, 0, 0, 0)" cursor="default" vector-effect="non-scaling-stroke"/>
		<path fill="#448db4" stroke="#fff" d="M517.03 201.75v5.3l-2.78 3.7v4.63l-2.44 3.34v5.66h5.92l6.4-1.72 3.82-5.35 2.75 2.8.2 11.15-4.3 7.97-2.23-3.06-3.4.1-.22-2.2-3.56-3.25-2.7 2.98v3.63l1.66-.12v1.84l-2.66 2.66-2.5-.03c-1.68-4.8-3.08-10.17-3.63-17.25l-3.25-3.62-2.1 3.25-2.83.03-5.07-6.28.2 6.9-2.3 2.16 3.56 5.4-3.04 10.03-5.03 3.44-5.97.04.13 2.9-4.3 3.42.04 2.56 3.87 3.7.04 4.8c2.22-.4-4.06-4.17 2.78 3.2v10.4l-5.5 9.77h-5.7v4.74l2.2 1.94h2.63v-2.06h5.2l2.2 2.9 1.6 9.9V309l-2.63 10.62-3.93 3.47v9l-1.48 6-1.4 7.15-9.13 10.72v3.6l8.08 4.7v5.35h2.44l4.15 5.07-3.12 2.4h-3.47l-2.44 2.56v8.18l-2.4 5.66 4.72 5.56c-2.6-3.13-.33 2.9.03.03l-4.73 6.4v6.25h-6.56l-2.1 2.06h-4.5l-1.7 1.14v7.03l-1.76.34v6.23h1.75l1.93 7.1v6.06l4.38 1.4 15.72-8.85h1.94l4.16-4.3h2.9l5.88 1.7 2.53 1.1h.03l2.56 1.16 1.72 3.82v2.84l3.82 3.16h5.53l4.3-3.22h4l5.22 3.6-.06-4.66h5.03v-8.66l2.77-6.78v-14.9l-1.4-6.35-4.5-13.75v-7.6l-.04-.06 2.94-7.28 2.9-3.1v-4.15h4.38v-2.9h6.22l4.7 4.3v3.46l2.42-1.75h2.4l-4.16-6.2v-4.98h1.9v-1.4l-1.55-1.6v-3.6h-2.42v-1.93l2.75-1.9v-4.5l4.35-4.14v-4.72l1.56-1.85h2.75l4-2.1v-4.5l3.6-4.06-1.58-1.75v-2.3l2.4-1.7h-3.1l2.07-5.57h1.74v-2.75l2.07-2.44v-2.9l-2.06-2.63h-3.25v-3.8h2.06v-8.1l-2.28-2.66v-4.5h-2.44l-2.56-2.4v-2.78h1.4v-2.22L555.5 272v-4.5l-7.13-9.13-.06.07-3.17-3.66H542l-4.7-9.72-.02-5.2-1.56-5.14-.22-8.3 1.75-2.17v-10.6h1.25v-5.9h-1.9l-3.47 3.34h-5.38l-1.9-3.47-5.2-2.3z" stroke-width="1.1" stroke-linejoin="round" style="-webkit-tap-highlight-color:rgba(0, 0, 0, 0)" cursor="default" vector-effect="non-scaling-stroke"/>
		<path fill="#e1f1f1" stroke="#fff" d="M518.7 261.5h-2.53l-.98-1.5 1-1.5 3.56 1.15-1.05 1.86z" stroke-width="1.1" stroke-linejoin="round" style="-webkit-tap-highlight-color:rgba(0, 0, 0, 0)" cursor="default" vector-effect="non-scaling-stroke"/>
		<path fill="#4960bf" stroke="#fff" d="M541.25.4c.8 4.82-6.32 1.7-10.53 14.16 6.57 17.22 10.5 26 8.37 32.44 1.3 7.03-2.15 11.9-3.35 13.3-2.83 3.36 2.6 11.8.28 17.1 6.23-3.72 3.64 8.9-4.2 6.44-9.43 5.8-5.8 6.04-6.6 8.5.8 2.2.94 5.83 2.9 5.75-4.22 2.15 2.9 5.82 1.06 14.1-7.12 9.04-6.4 9.82-13.8 6.96 1.24-5.74-4.87-.02-8.93-.28-1.4-1.32-8.5-6.5-11.16-8.44-1.6.2 1.1 3.47-5.05 2.3-4.43 8.07 2.75 8.04 7.22 16.85-2.75 1.2-6.2 1.77-8.03 11.62-3.86.34-2.15-4.63-5.78-2.53.72 7.9-8.05 5.58-12.25 11 4.43 15.6-4.5 12.7-.84 18.86 2.04 3.12 4.84-.7 5.13 5.75 5.6 2.14 7.5 5.17 8.9 9.04 1.08 3.8-.85 6.3-1.88 8.97-4.18 6.82-2.72 12.84-1.13 18.82 5.72-1.77 7.8.66 8.12 1.1-.06-.1-.18-.32-.3-.66-1.08-10.24 9.57 1.4 7.3-15.56 3.8 0 6.8-1.66 6.4-7.53l4.63 4.16c4.98-1.7 8.17.12 11.06 2.6 1.85-2 3.64-3.86 6.3-7.9l-8.3-4.6c-1.68-4.3-6.62-6.75-11.14-9.42l-5.2 1.32c-3.3-2.53-5.63-6-10.87-6.62.5-3.35 1.44-18.77 10.06-16.13 8.1-5.36 7.17 2.8 10.65 4.38 1.98 3.24 3.7 10.04 6.04 8.4 6.75-4.84 18.16-26.36 37.72-12.4.76 1.35 2.33 2.35 6.03 2.44 4.62 5.66 8.38 7.1 12.18 8.68 5.6 3.6 12.47 5.5 18.06 6.7 6 1.33 6.44 6.43 12.03 8.8 2.7-.74-1.35-4.8 2.04-5.57 1.88-.9.93-9.66-1.62-12.02 1.9-5.37 8.8-18.12 12.8-22.78 4.3-5 17.05-16.68 24.2-16.7 16.2-.25 10.9 4.6 16.35 2.08-6.77-8.72 11.9-10.4 1.53-5.07 1.7 2.4 4.88.83 6.97 1.26 4.72-5.12 1.76-10 7.2-7.3 1.2-1-.2-5.8 11.26-3.64-3.7-6.04 11.23-8.52 8.65-12.4-7.85.56-8.38 7.14-13.25 6.56-2.35-.22-4.6 2.13-7.75-13.44 3.74.32 9.43-1.53-3.16-3.43-7.3-2.1-2.8-18.72.87-21.5 2.43-7.14 3.92-13.57 2.34-14.62-1.86 1.63-7.95 11.48-12.5 15.38-4.45 3.82-3.44 7.78-6.86 8.03-11.95 1.95-17.8-1.8-19.72-8.08l-1.35-.06c1.3.4.42.38-.34.25.48 2.62-4.1 9.6-3.03-.52-1.08-2.5-.16.2-5.2-.7-2.13 5.76-14.74-.22-8.9-2.14-10.96-2.1-19.3-12-27.02-14.9-11.7-11.5-21.1-26.64-34.7-40.66C548.45 3.2 545.27.7 541.26.4zm88.78 65.4c-.02-.1-.05-.18-.1-.27-.87 0-.5.18.1.28zm-.1-.27l.45.03-.5-.15.06.13zM511.24 3.75c-4 .46-.67 10.5.5 8.44 1.36-.93 1.87-5.65-.1-8.45h-.4zm6.68 10c-.25 0-.52 0-.8.03-6.84 6.94 3.95 8.37 5.15 6.25.7-3.23-.48-6.34-4.34-6.28zm181.23 24.6c-4.26 2.36-4.27 6.86-5.66 11.27-2.32 3-3.54 3.27-4.16 6.35-2.35 2.08-3.47 6.54-3.42 7.87-6.02 6.86-8.74 6.34-11.54 12.13l1.63 5.37c3.2-1.26 4.73-.02 5.4 2.5 1.3-2.12-2-11.6 2.22-11.78 2.23-2.3 5.57 1.63 5.52-7.47 4.12 1.57 1.53-3.33 4.22-7.13 5.26.38 3.52-8.04 12.5-7.03 6.23-11.56 6.34.56 9.38-10.56-4.97-1.92 3.92 4.2-12.03 2.53-.55-1.9-1.07-3.8-4.08-4.06zm28.5 29.02c-1.84 0-3.47 2.95-4.6 3.3-1.38.68-4.62.78-4.62 2.4 0 1.4.1 1.18.44 2.52 3.02 6.02 4.95 1.22 7.4-.57.35-.68 3.1-3.96 5.13-3.47-2.3-1.1-1.78-3.7-3.75-4.2zM709.6 81.6c-.4.04-.8.26-1.2.74-.5 1.48 1.48 1.7 2.9 1.44.35-.9-.57-2.34-1.7-2.2zm-4.3 6.37c-.97-.03-2.54.4-3.77.1-1.84 0 1.95 3.72.8 4.06-1.36.68-2.7 1.1-2.74 2.7-.04 1.5 1.53.54 2.96.05.7-4.5 1.24-1.6 3.94-3.75-.64-.9-.78-1.73-.25-2.38.03-.6-.35-.76-.94-.78zm-10.27 4.78c-.35.02-.76.1-1.25.22-.5 1.48 1.23 2.87 3.38 2.22-.16-.58.34-2.62-2.13-2.45zm-233.87 76.13c-1.67.16-2.97 2.1-4.57 1.7-.37 2.6-1.62 4.56-.2 8.17 2.8 1.67 1.83.4 4.3-1.38-1.48-7.94 2.76-5.5 1.68-8.28-.44-.2-.84-.26-1.22-.22z" stroke-width="1.1" stroke-linejoin="round" style="-webkit-tap-highlight-color:rgba(0, 0, 0, 0)" cursor="default" vector-effect="non-scaling-stroke"/>
</svg>
